<?xml version="1.0" encoding="utf-8" standalone="no"?>
<!DOCTYPE svg PUBLIC "-//W3C//DTD SVG 1.1//EN"
  "http://www.w3.org/Graphics/SVG/1.1/DTD/svg11.dtd">
<svg xmlns:xlink="http://www.w3.org/1999/xlink" width="711.779687pt" height="394.654119pt" viewBox="0 0 711.779687 394.654119" xmlns="http://www.w3.org/2000/svg" version="1.1">
 <metadata>
  <rdf:RDF xmlns:dc="http://purl.org/dc/elements/1.1/" xmlns:cc="http://creativecommons.org/ns#" xmlns:rdf="http://www.w3.org/1999/02/22-rdf-syntax-ns#">
   <cc:Work>
    <dc:type rdf:resource="http://purl.org/dc/dcmitype/StillImage"/>
    <dc:date>2026-04-11T15:16:22.759480</dc:date>
    <dc:format>image/svg+xml</dc:format>
    <dc:creator>
     <cc:Agent>
      <dc:title>Matplotlib v3.10.8, https://matplotlib.org/</dc:title>
     </cc:Agent>
    </dc:creator>
   </cc:Work>
  </rdf:RDF>
 </metadata>
 <defs>
  <style type="text/css">*{stroke-linejoin: round; stroke-linecap: butt}</style>
 </defs>
 <g id="figure_1">
  <g id="patch_1">
   <path d="M 0 394.654119 
L 711.779687 394.654119 
L 711.779687 0 
L 0 0 
z
" style="fill: #ffffff"/>
  </g>
  <g id="axes_1">
   <g id="patch_2">
    <path d="M 48.679688 352.649926 
L 704.579688 352.649926 
L 704.579688 22.7925 
L 48.679688 22.7925 
z
" style="fill: #ffffff"/>
   </g>
   <g id="patch_3">
    <path d="M 78.493324 352.649926 
L 157.411773 352.649926 
L 157.411773 347.865424 
L 78.493324 347.865424 
z
" clip-path="url(#pcbe79f8372)" style="fill: #d62728"/>
   </g>
   <g id="patch_4">
    <path d="M 297.711238 352.649926 
L 376.629688 352.649926 
L 376.629688 38.499996 
L 297.711238 38.499996 
z
" clip-path="url(#pcbe79f8372)" style="fill: #d62728"/>
   </g>
   <g id="patch_5">
    <path d="M 516.929153 352.649926 
L 595.847602 352.649926 
L 595.847602 343.034531 
L 516.929153 343.034531 
z
" clip-path="url(#pcbe79f8372)" style="fill: #d62728"/>
   </g>
   <g id="patch_6">
    <path d="M 157.411773 352.649926 
L 236.330222 352.649926 
L 236.330222 308.413278 
L 157.411773 308.413278 
z
" clip-path="url(#pcbe79f8372)" style="fill: #2ca02c"/>
   </g>
   <g id="patch_7">
    <path d="M 376.629688 352.649926 
L 455.548137 352.649926 
L 455.548137 180.978497 
L 376.629688 180.978497 
z
" clip-path="url(#pcbe79f8372)" style="fill: #2ca02c"/>
   </g>
   <g id="patch_8">
    <path d="M 595.847602 352.649926 
L 674.766051 352.649926 
L 674.766051 285.374024 
L 595.847602 285.374024 
z
" clip-path="url(#pcbe79f8372)" style="fill: #2ca02c"/>
   </g>
   <g id="matplotlib.axis_1">
    <g id="xtick_1">
     <g id="line2d_1">
      <path d="M 157.411773 352.649926 
L 157.411773 22.7925 
" clip-path="url(#pcbe79f8372)" style="fill: none; stroke: #b0b0b0; stroke-opacity: 0.2; stroke-width: 0.8; stroke-linecap: square"/>
     </g>
     <g id="line2d_2">
      <defs>
       <path id="mdd18c22e77" d="M 0 0 
L 0 3.5 
" style="stroke: #000000; stroke-width: 0.8"/>
      </defs>
      <g>
       <use xlink:href="#mdd18c22e77" x="157.411773" y="352.649926" style="stroke: #000000; stroke-width: 0.8"/>
      </g>
     </g>
     <g id="text_1">
      <!-- baseline -->
      <g transform="translate(138.568517 374.336025) rotate(-10) scale(0.1 -0.1)">
       <defs>
        <path id="MicrosoftYaHei-62" d="M 1159 488 
L 1159 0 
L 547 0 
L 547 5116 
L 1159 5116 
L 1159 2859 
L 1172 2859 
Q 1578 3538 2359 3538 
Q 3009 3538 3392 3080 
Q 3775 2622 3775 1828 
Q 3775 953 3345 436 
Q 2916 -81 2200 -81 
Q 1525 -81 1172 488 
L 1159 488 
z
M 1156 1422 
Q 1156 1003 1428 714 
Q 1700 425 2109 425 
Q 2597 425 2872 800 
Q 3147 1175 3147 1838 
Q 3147 2384 2890 2707 
Q 2634 3031 2191 3031 
Q 1741 3031 1448 2709 
Q 1156 2388 1156 1891 
L 1156 1422 
z
" transform="scale(0.015625)"/>
        <path id="MicrosoftYaHei-61" d="M 628 3216 
Q 1144 3538 1819 3538 
Q 3069 3538 3069 2225 
L 3069 0 
L 2463 0 
L 2463 534 
L 2447 534 
Q 2088 -81 1388 -81 
Q 884 -81 587 191 
Q 291 463 291 925 
Q 291 1894 1438 2053 
L 2463 2197 
Q 2463 3044 1763 3044 
Q 1141 3044 628 2625 
L 628 3216 
z
M 1653 1625 
Q 1228 1569 1067 1412 
Q 906 1256 906 975 
Q 906 728 1081 572 
Q 1256 416 1544 416 
Q 1944 416 2203 697 
Q 2463 978 2463 1403 
L 2463 1734 
L 1653 1625 
z
" transform="scale(0.015625)"/>
        <path id="MicrosoftYaHei-73" d="M 353 747 
Q 816 413 1350 413 
Q 2066 413 2066 881 
Q 2066 1081 1909 1211 
Q 1753 1341 1275 1519 
Q 700 1750 528 1976 
Q 356 2203 356 2525 
Q 356 2984 745 3261 
Q 1134 3538 1703 3538 
Q 2144 3538 2522 3384 
L 2522 2794 
Q 2134 3044 1644 3044 
Q 1350 3044 1165 2916 
Q 981 2788 981 2578 
Q 981 2372 1114 2256 
Q 1247 2141 1703 1959 
Q 2281 1744 2484 1512 
Q 2688 1281 2688 941 
Q 2688 466 2298 192 
Q 1909 -81 1291 -81 
Q 753 -81 353 122 
L 353 747 
z
" transform="scale(0.015625)"/>
        <path id="MicrosoftYaHei-65" d="M 3363 1572 
L 944 1572 
Q 959 1019 1246 717 
Q 1534 416 2050 416 
Q 2631 416 3116 788 
L 3116 241 
Q 2659 -81 1906 -81 
Q 1156 -81 736 394 
Q 316 869 316 1713 
Q 316 2506 777 3022 
Q 1238 3538 1922 3538 
Q 2600 3538 2981 3102 
Q 3363 2666 3363 1881 
L 3363 1572 
z
M 2750 2063 
Q 2747 2531 2528 2787 
Q 2309 3044 1913 3044 
Q 1547 3044 1280 2772 
Q 1013 2500 944 2063 
L 2750 2063 
z
" transform="scale(0.015625)"/>
        <path id="MicrosoftYaHei-6c" d="M 544 0 
L 544 5116 
L 1156 5116 
L 1156 0 
L 544 0 
z
" transform="scale(0.015625)"/>
        <path id="MicrosoftYaHei-69" d="M 472 4675 
Q 472 4838 583 4948 
Q 694 5059 856 5059 
Q 1022 5059 1136 4950 
Q 1250 4841 1250 4675 
Q 1250 4513 1136 4405 
Q 1022 4297 856 4297 
Q 691 4297 581 4405 
Q 472 4513 472 4675 
z
M 544 0 
L 544 3456 
L 1156 3456 
L 1156 0 
L 544 0 
z
" transform="scale(0.015625)"/>
        <path id="MicrosoftYaHei-6e" d="M 3469 0 
L 2859 0 
L 2859 1966 
Q 2859 3031 2081 3031 
Q 1678 3031 1418 2731 
Q 1159 2431 1159 1972 
L 1159 0 
L 547 0 
L 547 3456 
L 1159 3456 
L 1159 2884 
L 1172 2884 
Q 1563 3538 2306 3538 
Q 2875 3538 3172 3173 
Q 3469 2809 3469 2113 
L 3469 0 
z
" transform="scale(0.015625)"/>
       </defs>
       <use xlink:href="#MicrosoftYaHei-62"/>
       <use xlink:href="#MicrosoftYaHei-61" transform="translate(62.492188 0)"/>
       <use xlink:href="#MicrosoftYaHei-73" transform="translate(117.765625 0)"/>
       <use xlink:href="#MicrosoftYaHei-65" transform="translate(164.054688 0)"/>
       <use xlink:href="#MicrosoftYaHei-6c" transform="translate(220.792969 0)"/>
       <use xlink:href="#MicrosoftYaHei-69" transform="translate(247.404297 0)"/>
       <use xlink:href="#MicrosoftYaHei-6e" transform="translate(274.015625 0)"/>
       <use xlink:href="#MicrosoftYaHei-65" transform="translate(335.636719 0)"/>
      </g>
     </g>
    </g>
    <g id="xtick_2">
     <g id="line2d_3">
      <path d="M 376.629688 352.649926 
L 376.629688 22.7925 
" clip-path="url(#pcbe79f8372)" style="fill: none; stroke: #b0b0b0; stroke-opacity: 0.2; stroke-width: 0.8; stroke-linecap: square"/>
     </g>
     <g id="line2d_4">
      <g>
       <use xlink:href="#mdd18c22e77" x="376.629688" y="352.649926" style="stroke: #000000; stroke-width: 0.8"/>
      </g>
     </g>
     <g id="text_2">
      <!-- lateral_disturbance -->
      <g transform="translate(332.779561 383.152739) rotate(-10) scale(0.1 -0.1)">
       <defs>
        <path id="MicrosoftYaHei-74" d="M 2206 34 
Q 2006 -75 1666 -75 
Q 738 -75 738 953 
L 738 2950 
L 144 2950 
L 144 3456 
L 738 3456 
L 738 4288 
L 1347 4481 
L 1347 3456 
L 2206 3456 
L 2206 2950 
L 1347 2950 
L 1347 1063 
Q 1347 722 1462 575 
Q 1578 428 1847 428 
Q 2053 428 2206 544 
L 2206 34 
z
" transform="scale(0.015625)"/>
        <path id="MicrosoftYaHei-72" d="M 2400 2850 
Q 2247 2959 1978 2959 
Q 1622 2959 1390 2626 
Q 1159 2294 1159 1750 
L 1159 0 
L 547 0 
L 547 3456 
L 1159 3456 
L 1159 2753 
L 1172 2753 
Q 1434 3516 2078 3516 
Q 2288 3516 2400 3469 
L 2400 2850 
z
" transform="scale(0.015625)"/>
        <path id="MicrosoftYaHei-5f" d="M 2869 -1634 
L 0 -1634 
L 0 -1231 
L 2869 -1231 
L 2869 -1634 
z
" transform="scale(0.015625)"/>
        <path id="MicrosoftYaHei-64" d="M 3547 0 
L 2934 0 
L 2934 575 
L 2922 575 
Q 2544 -81 1747 -81 
Q 1091 -81 703 386 
Q 316 853 316 1647 
Q 316 2503 753 3020 
Q 1191 3538 1897 3538 
Q 2603 3538 2922 2988 
L 2934 2988 
L 2934 5116 
L 3547 5116 
L 3547 0 
z
M 2938 2056 
Q 2938 2472 2664 2751 
Q 2391 3031 1991 3031 
Q 1503 3031 1222 2667 
Q 941 2303 941 1675 
Q 941 1097 1211 761 
Q 1481 425 1931 425 
Q 2375 425 2656 754 
Q 2938 1084 2938 1575 
L 2938 2056 
z
" transform="scale(0.015625)"/>
        <path id="MicrosoftYaHei-75" d="M 3400 0 
L 2784 0 
L 2784 544 
L 2772 544 
Q 2425 -81 1706 -81 
Q 478 -81 478 1388 
L 478 3456 
L 1084 3456 
L 1084 1478 
Q 1084 425 1891 425 
Q 2291 425 2537 720 
Q 2784 1016 2784 1466 
L 2784 3456 
L 3400 3456 
L 3400 0 
z
" transform="scale(0.015625)"/>
        <path id="MicrosoftYaHei-63" d="M 2934 156 
Q 2538 -81 1978 -81 
Q 1228 -81 772 400 
Q 316 881 316 1647 
Q 316 2497 808 3017 
Q 1300 3538 2125 3538 
Q 2600 3538 2938 3369 
L 2938 2763 
Q 2572 3031 2125 3031 
Q 1600 3031 1270 2667 
Q 941 2303 941 1697 
Q 941 1100 1252 762 
Q 1563 425 2091 425 
Q 2538 425 2934 719 
L 2934 156 
z
" transform="scale(0.015625)"/>
       </defs>
       <use xlink:href="#MicrosoftYaHei-6c"/>
       <use xlink:href="#MicrosoftYaHei-61" transform="translate(26.611328 0)"/>
       <use xlink:href="#MicrosoftYaHei-74" transform="translate(81.884766 0)"/>
       <use xlink:href="#MicrosoftYaHei-65" transform="translate(118.265625 0)"/>
       <use xlink:href="#MicrosoftYaHei-72" transform="translate(175.003906 0)"/>
       <use xlink:href="#MicrosoftYaHei-61" transform="translate(213.1875 0)"/>
       <use xlink:href="#MicrosoftYaHei-6c" transform="translate(268.460938 0)"/>
       <use xlink:href="#MicrosoftYaHei-5f" transform="translate(295.072266 0)"/>
       <use xlink:href="#MicrosoftYaHei-64" transform="translate(339.896484 0)"/>
       <use xlink:href="#MicrosoftYaHei-69" transform="translate(403.861328 0)"/>
       <use xlink:href="#MicrosoftYaHei-73" transform="translate(430.472656 0)"/>
       <use xlink:href="#MicrosoftYaHei-74" transform="translate(476.761719 0)"/>
       <use xlink:href="#MicrosoftYaHei-75" transform="translate(514.017578 0)"/>
       <use xlink:href="#MicrosoftYaHei-72" transform="translate(575.638672 0)"/>
       <use xlink:href="#MicrosoftYaHei-62" transform="translate(613.822266 0)"/>
       <use xlink:href="#MicrosoftYaHei-61" transform="translate(676.314453 0)"/>
       <use xlink:href="#MicrosoftYaHei-6e" transform="translate(731.587891 0)"/>
       <use xlink:href="#MicrosoftYaHei-63" transform="translate(793.208984 0)"/>
       <use xlink:href="#MicrosoftYaHei-65" transform="translate(843.355469 0)"/>
      </g>
     </g>
    </g>
    <g id="xtick_3">
     <g id="line2d_5">
      <path d="M 595.847602 352.649926 
L 595.847602 22.7925 
" clip-path="url(#pcbe79f8372)" style="fill: none; stroke: #b0b0b0; stroke-opacity: 0.2; stroke-width: 0.8; stroke-linecap: square"/>
     </g>
     <g id="line2d_6">
      <g>
       <use xlink:href="#mdd18c22e77" x="595.847602" y="352.649926" style="stroke: #000000; stroke-width: 0.8"/>
      </g>
     </g>
     <g id="text_3">
      <!-- aggressive_reference -->
      <g transform="translate(547.267493 384.939782) rotate(-10) scale(0.1 -0.1)">
       <defs>
        <path id="MicrosoftYaHei-67" d="M 3547 291 
Q 3547 -1628 1684 -1628 
Q 1041 -1628 566 -1388 
L 566 -797 
Q 1144 -1119 1675 -1119 
Q 2934 -1119 2934 206 
L 2934 572 
L 2922 572 
Q 2528 -81 1747 -81 
Q 1097 -81 706 384 
Q 316 850 316 1619 
Q 316 2503 747 3020 
Q 1178 3538 1897 3538 
Q 2588 3538 2922 2988 
L 2934 2988 
L 2934 3456 
L 3547 3456 
L 3547 291 
z
M 2934 2056 
Q 2938 2456 2666 2743 
Q 2394 3031 1997 3031 
Q 1497 3031 1219 2664 
Q 941 2297 941 1656 
Q 941 1106 1209 765 
Q 1478 425 1922 425 
Q 2369 425 2653 750 
Q 2938 1075 2934 1575 
L 2934 2056 
z
" transform="scale(0.015625)"/>
        <path id="MicrosoftYaHei-76" d="M 3331 3456 
L 1963 0 
L 1344 0 
L 44 3456 
L 713 3456 
L 1556 988 
Q 1659 691 1678 491 
L 1694 491 
Q 1725 753 1803 975 
L 2688 3456 
L 3331 3456 
z
" transform="scale(0.015625)"/>
        <path id="MicrosoftYaHei-66" d="M 2319 4594 
Q 2147 4684 1947 4684 
Q 1372 4684 1372 3972 
L 1372 3456 
L 2181 3456 
L 2181 2950 
L 1372 2950 
L 1372 0 
L 766 0 
L 766 2950 
L 175 2950 
L 175 3456 
L 766 3456 
L 766 4000 
Q 766 4556 1086 4873 
Q 1406 5191 1900 5191 
Q 2163 5191 2319 5131 
L 2319 4594 
z
" transform="scale(0.015625)"/>
       </defs>
       <use xlink:href="#MicrosoftYaHei-61"/>
       <use xlink:href="#MicrosoftYaHei-67" transform="translate(55.273438 0)"/>
       <use xlink:href="#MicrosoftYaHei-67" transform="translate(119.238281 0)"/>
       <use xlink:href="#MicrosoftYaHei-72" transform="translate(183.203125 0)"/>
       <use xlink:href="#MicrosoftYaHei-65" transform="translate(220.011719 0)"/>
       <use xlink:href="#MicrosoftYaHei-73" transform="translate(276.75 0)"/>
       <use xlink:href="#MicrosoftYaHei-73" transform="translate(323.039062 0)"/>
       <use xlink:href="#MicrosoftYaHei-69" transform="translate(369.328125 0)"/>
       <use xlink:href="#MicrosoftYaHei-76" transform="translate(395.939453 0)"/>
       <use xlink:href="#MicrosoftYaHei-65" transform="translate(447.804688 0)"/>
       <use xlink:href="#MicrosoftYaHei-5f" transform="translate(504.542969 0)"/>
       <use xlink:href="#MicrosoftYaHei-72" transform="translate(549.367188 0)"/>
       <use xlink:href="#MicrosoftYaHei-65" transform="translate(586.175781 0)"/>
       <use xlink:href="#MicrosoftYaHei-66" transform="translate(642.914062 0)"/>
       <use xlink:href="#MicrosoftYaHei-65" transform="translate(677.582031 0)"/>
       <use xlink:href="#MicrosoftYaHei-72" transform="translate(734.320312 0)"/>
       <use xlink:href="#MicrosoftYaHei-65" transform="translate(771.128906 0)"/>
       <use xlink:href="#MicrosoftYaHei-6e" transform="translate(827.867188 0)"/>
       <use xlink:href="#MicrosoftYaHei-63" transform="translate(889.488281 0)"/>
       <use xlink:href="#MicrosoftYaHei-65" transform="translate(939.634766 0)"/>
      </g>
     </g>
    </g>
   </g>
   <g id="matplotlib.axis_2">
    <g id="ytick_1">
     <g id="line2d_7">
      <path d="M 48.679688 352.649926 
L 704.579688 352.649926 
" clip-path="url(#pcbe79f8372)" style="fill: none; stroke: #b0b0b0; stroke-opacity: 0.2; stroke-width: 0.8; stroke-linecap: square"/>
     </g>
     <g id="line2d_8">
      <defs>
       <path id="mb4a6560e8b" d="M 0 0 
L -3.5 0 
" style="stroke: #000000; stroke-width: 0.8"/>
      </defs>
      <g>
       <use xlink:href="#mb4a6560e8b" x="48.679688" y="352.649926" style="stroke: #000000; stroke-width: 0.8"/>
      </g>
     </g>
     <g id="text_4">
      <!-- 0.00 -->
      <g transform="translate(21.679688 356.646801) scale(0.1 -0.1)">
       <defs>
        <path id="MicrosoftYaHei-30" d="M 284 2325 
Q 284 3606 709 4264 
Q 1134 4922 1941 4922 
Q 3478 4922 3478 2441 
Q 3478 1216 3045 567 
Q 2613 -81 1831 -81 
Q 1094 -81 689 534 
Q 284 1150 284 2325 
z
M 909 2353 
Q 909 425 1888 425 
Q 2850 425 2850 2384 
Q 2850 4413 1906 4413 
Q 909 4413 909 2353 
z
" transform="scale(0.015625)"/>
        <path id="MicrosoftYaHei-2e" d="M 372 322 
Q 372 491 487 606 
Q 603 722 775 722 
Q 950 722 1065 605 
Q 1181 488 1181 322 
Q 1181 159 1065 42 
Q 950 -75 772 -75 
Q 600 -75 486 42 
Q 372 159 372 322 
z
" transform="scale(0.015625)"/>
       </defs>
       <use xlink:href="#MicrosoftYaHei-30"/>
       <use xlink:href="#MicrosoftYaHei-2e" transform="translate(58.642578 0)"/>
       <use xlink:href="#MicrosoftYaHei-30" transform="translate(82.714844 0)"/>
       <use xlink:href="#MicrosoftYaHei-30" transform="translate(141.357422 0)"/>
      </g>
     </g>
    </g>
    <g id="ytick_2">
     <g id="line2d_9">
      <path d="M 48.679688 315.781573 
L 704.579688 315.781573 
" clip-path="url(#pcbe79f8372)" style="fill: none; stroke: #b0b0b0; stroke-opacity: 0.2; stroke-width: 0.8; stroke-linecap: square"/>
     </g>
     <g id="line2d_10">
      <g>
       <use xlink:href="#mb4a6560e8b" x="48.679688" y="315.781573" style="stroke: #000000; stroke-width: 0.8"/>
      </g>
     </g>
     <g id="text_5">
      <!-- 0.05 -->
      <g transform="translate(21.679688 319.778448) scale(0.1 -0.1)">
       <defs>
        <path id="MicrosoftYaHei-35" d="M 3294 1494 
Q 3294 784 2823 350 
Q 2353 -84 1559 -84 
Q 878 -84 544 119 
L 544 744 
Q 1034 425 1544 425 
Q 2050 425 2361 704 
Q 2672 984 2672 1447 
Q 2672 1909 2348 2167 
Q 2025 2425 1434 2425 
Q 978 2425 613 2384 
L 791 4841 
L 3053 4841 
L 3053 4303 
L 1306 4303 
L 1206 2931 
L 1647 2950 
Q 2416 2950 2855 2567 
Q 3294 2184 3294 1494 
z
" transform="scale(0.015625)"/>
       </defs>
       <use xlink:href="#MicrosoftYaHei-30"/>
       <use xlink:href="#MicrosoftYaHei-2e" transform="translate(58.642578 0)"/>
       <use xlink:href="#MicrosoftYaHei-30" transform="translate(82.714844 0)"/>
       <use xlink:href="#MicrosoftYaHei-35" transform="translate(141.357422 0)"/>
      </g>
     </g>
    </g>
    <g id="ytick_3">
     <g id="line2d_11">
      <path d="M 48.679688 278.913219 
L 704.579688 278.913219 
" clip-path="url(#pcbe79f8372)" style="fill: none; stroke: #b0b0b0; stroke-opacity: 0.2; stroke-width: 0.8; stroke-linecap: square"/>
     </g>
     <g id="line2d_12">
      <g>
       <use xlink:href="#mb4a6560e8b" x="48.679688" y="278.913219" style="stroke: #000000; stroke-width: 0.8"/>
      </g>
     </g>
     <g id="text_6">
      <!-- 0.10 -->
      <g transform="translate(21.679688 282.910094) scale(0.1 -0.1)">
       <defs>
        <path id="MicrosoftYaHei-31" d="M 1781 0 
L 1781 4141 
Q 1638 3997 1295 3819 
Q 953 3641 663 3569 
L 663 4169 
Q 1047 4275 1484 4508 
Q 1922 4741 2156 4947 
L 2388 4947 
L 2388 0 
L 1781 0 
z
" transform="scale(0.015625)"/>
       </defs>
       <use xlink:href="#MicrosoftYaHei-30"/>
       <use xlink:href="#MicrosoftYaHei-2e" transform="translate(58.642578 0)"/>
       <use xlink:href="#MicrosoftYaHei-31" transform="translate(82.714844 0)"/>
       <use xlink:href="#MicrosoftYaHei-30" transform="translate(141.357422 0)"/>
      </g>
     </g>
    </g>
    <g id="ytick_4">
     <g id="line2d_13">
      <path d="M 48.679688 242.044866 
L 704.579688 242.044866 
" clip-path="url(#pcbe79f8372)" style="fill: none; stroke: #b0b0b0; stroke-opacity: 0.2; stroke-width: 0.8; stroke-linecap: square"/>
     </g>
     <g id="line2d_14">
      <g>
       <use xlink:href="#mb4a6560e8b" x="48.679688" y="242.044866" style="stroke: #000000; stroke-width: 0.8"/>
      </g>
     </g>
     <g id="text_7">
      <!-- 0.15 -->
      <g transform="translate(21.679688 246.041741) scale(0.1 -0.1)">
       <use xlink:href="#MicrosoftYaHei-30"/>
       <use xlink:href="#MicrosoftYaHei-2e" transform="translate(58.642578 0)"/>
       <use xlink:href="#MicrosoftYaHei-31" transform="translate(82.714844 0)"/>
       <use xlink:href="#MicrosoftYaHei-35" transform="translate(141.357422 0)"/>
      </g>
     </g>
    </g>
    <g id="ytick_5">
     <g id="line2d_15">
      <path d="M 48.679688 205.176512 
L 704.579688 205.176512 
" clip-path="url(#pcbe79f8372)" style="fill: none; stroke: #b0b0b0; stroke-opacity: 0.2; stroke-width: 0.8; stroke-linecap: square"/>
     </g>
     <g id="line2d_16">
      <g>
       <use xlink:href="#mb4a6560e8b" x="48.679688" y="205.176512" style="stroke: #000000; stroke-width: 0.8"/>
      </g>
     </g>
     <g id="text_8">
      <!-- 0.20 -->
      <g transform="translate(21.679688 209.173387) scale(0.1 -0.1)">
       <defs>
        <path id="MicrosoftYaHei-32" d="M 2666 3572 
Q 2666 3963 2419 4186 
Q 2172 4409 1747 4409 
Q 1447 4409 1140 4256 
Q 834 4103 569 3819 
L 569 4413 
Q 806 4659 1107 4790 
Q 1409 4922 1816 4922 
Q 2472 4922 2872 4570 
Q 3272 4219 3272 3619 
Q 3272 3084 3026 2693 
Q 2781 2303 2188 1894 
Q 1581 1475 1376 1294 
Q 1172 1113 1090 947 
Q 1009 781 1009 544 
L 3416 544 
L 3416 0 
L 372 0 
L 372 241 
Q 372 659 486 951 
Q 600 1244 862 1520 
Q 1125 1797 1681 2184 
Q 2250 2584 2458 2886 
Q 2666 3188 2666 3572 
z
" transform="scale(0.015625)"/>
       </defs>
       <use xlink:href="#MicrosoftYaHei-30"/>
       <use xlink:href="#MicrosoftYaHei-2e" transform="translate(58.642578 0)"/>
       <use xlink:href="#MicrosoftYaHei-32" transform="translate(82.714844 0)"/>
       <use xlink:href="#MicrosoftYaHei-30" transform="translate(141.357422 0)"/>
      </g>
     </g>
    </g>
    <g id="ytick_6">
     <g id="line2d_17">
      <path d="M 48.679688 168.308159 
L 704.579688 168.308159 
" clip-path="url(#pcbe79f8372)" style="fill: none; stroke: #b0b0b0; stroke-opacity: 0.2; stroke-width: 0.8; stroke-linecap: square"/>
     </g>
     <g id="line2d_18">
      <g>
       <use xlink:href="#mb4a6560e8b" x="48.679688" y="168.308159" style="stroke: #000000; stroke-width: 0.8"/>
      </g>
     </g>
     <g id="text_9">
      <!-- 0.25 -->
      <g transform="translate(21.679688 172.305034) scale(0.1 -0.1)">
       <use xlink:href="#MicrosoftYaHei-30"/>
       <use xlink:href="#MicrosoftYaHei-2e" transform="translate(58.642578 0)"/>
       <use xlink:href="#MicrosoftYaHei-32" transform="translate(82.714844 0)"/>
       <use xlink:href="#MicrosoftYaHei-35" transform="translate(141.357422 0)"/>
      </g>
     </g>
    </g>
    <g id="ytick_7">
     <g id="line2d_19">
      <path d="M 48.679688 131.439806 
L 704.579688 131.439806 
" clip-path="url(#pcbe79f8372)" style="fill: none; stroke: #b0b0b0; stroke-opacity: 0.2; stroke-width: 0.8; stroke-linecap: square"/>
     </g>
     <g id="line2d_20">
      <g>
       <use xlink:href="#mb4a6560e8b" x="48.679688" y="131.439806" style="stroke: #000000; stroke-width: 0.8"/>
      </g>
     </g>
     <g id="text_10">
      <!-- 0.30 -->
      <g transform="translate(21.679688 135.436681) scale(0.1 -0.1)">
       <defs>
        <path id="MicrosoftYaHei-33" d="M 447 809 
Q 944 425 1569 425 
Q 2069 425 2361 670 
Q 2653 916 2653 1328 
Q 2653 2247 1338 2247 
L 934 2247 
L 934 2753 
L 1319 2753 
Q 2484 2753 2484 3616 
Q 2484 4413 1594 4413 
Q 1084 4413 634 4069 
L 634 4647 
Q 1109 4922 1744 4922 
Q 2363 4922 2738 4598 
Q 3113 4275 3113 3759 
Q 3113 2809 2144 2538 
L 2144 2525 
Q 2669 2469 2973 2155 
Q 3278 1841 3278 1372 
Q 3278 719 2808 319 
Q 2338 -81 1556 -81 
Q 869 -81 447 175 
L 447 809 
z
" transform="scale(0.015625)"/>
       </defs>
       <use xlink:href="#MicrosoftYaHei-30"/>
       <use xlink:href="#MicrosoftYaHei-2e" transform="translate(58.642578 0)"/>
       <use xlink:href="#MicrosoftYaHei-33" transform="translate(82.714844 0)"/>
       <use xlink:href="#MicrosoftYaHei-30" transform="translate(141.357422 0)"/>
      </g>
     </g>
    </g>
    <g id="ytick_8">
     <g id="line2d_21">
      <path d="M 48.679688 94.571452 
L 704.579688 94.571452 
" clip-path="url(#pcbe79f8372)" style="fill: none; stroke: #b0b0b0; stroke-opacity: 0.2; stroke-width: 0.8; stroke-linecap: square"/>
     </g>
     <g id="line2d_22">
      <g>
       <use xlink:href="#mb4a6560e8b" x="48.679688" y="94.571452" style="stroke: #000000; stroke-width: 0.8"/>
      </g>
     </g>
     <g id="text_11">
      <!-- 0.35 -->
      <g transform="translate(21.679688 98.568327) scale(0.1 -0.1)">
       <use xlink:href="#MicrosoftYaHei-30"/>
       <use xlink:href="#MicrosoftYaHei-2e" transform="translate(58.642578 0)"/>
       <use xlink:href="#MicrosoftYaHei-33" transform="translate(82.714844 0)"/>
       <use xlink:href="#MicrosoftYaHei-35" transform="translate(141.357422 0)"/>
      </g>
     </g>
    </g>
    <g id="ytick_9">
     <g id="line2d_23">
      <path d="M 48.679688 57.703099 
L 704.579688 57.703099 
" clip-path="url(#pcbe79f8372)" style="fill: none; stroke: #b0b0b0; stroke-opacity: 0.2; stroke-width: 0.8; stroke-linecap: square"/>
     </g>
     <g id="line2d_24">
      <g>
       <use xlink:href="#mb4a6560e8b" x="48.679688" y="57.703099" style="stroke: #000000; stroke-width: 0.8"/>
      </g>
     </g>
     <g id="text_12">
      <!-- 0.40 -->
      <g transform="translate(21.679688 61.699974) scale(0.1 -0.1)">
       <defs>
        <path id="MicrosoftYaHei-34" d="M 2906 4841 
L 2906 1644 
L 3631 1644 
L 3631 1138 
L 2906 1138 
L 2906 0 
L 2313 0 
L 2313 1138 
L 53 1138 
L 53 1616 
Q 656 2294 1265 3178 
Q 1875 4063 2272 4841 
L 2906 4841 
z
M 741 1644 
L 2313 1644 
L 2313 3950 
Q 1988 3366 1616 2817 
Q 1244 2269 741 1644 
z
" transform="scale(0.015625)"/>
       </defs>
       <use xlink:href="#MicrosoftYaHei-30"/>
       <use xlink:href="#MicrosoftYaHei-2e" transform="translate(58.642578 0)"/>
       <use xlink:href="#MicrosoftYaHei-34" transform="translate(82.714844 0)"/>
       <use xlink:href="#MicrosoftYaHei-30" transform="translate(141.357422 0)"/>
      </g>
     </g>
    </g>
    <g id="text_13">
     <!-- RMSE -->
     <g transform="translate(15.19375 201.505588) rotate(-90) scale(0.1 -0.1)">
      <defs>
       <path id="MicrosoftYaHei-52" d="M 4159 0 
L 3422 0 
L 2619 1344 
Q 2378 1747 2178 1892 
Q 1978 2038 1700 2038 
L 1250 2038 
L 1250 0 
L 625 0 
L 625 4841 
L 2100 4841 
Q 2806 4841 3206 4500 
Q 3606 4159 3606 3547 
Q 3606 2541 2531 2241 
L 2531 2225 
Q 2731 2141 2876 1984 
Q 3022 1828 3253 1450 
L 4159 0 
z
M 1250 4294 
L 1250 2584 
L 1988 2584 
Q 2416 2584 2683 2834 
Q 2950 3084 2950 3491 
Q 2950 3869 2706 4081 
Q 2463 4294 1997 4294 
L 1250 4294 
z
" transform="scale(0.015625)"/>
       <path id="MicrosoftYaHei-4d" d="M 5003 0 
L 5003 3206 
Q 5003 3603 5050 4159 
L 5034 4159 
Q 4953 3809 4891 3672 
L 3294 0 
L 2947 0 
L 1353 3644 
Q 1297 3769 1209 4159 
L 1191 4159 
Q 1222 3822 1222 3178 
L 1222 0 
L 625 0 
L 625 4841 
L 1472 4841 
L 2900 1522 
Q 3063 1141 3116 928 
L 3138 928 
Q 3300 1375 3366 1534 
L 4819 4841 
L 5625 4841 
L 5625 0 
L 5003 0 
z
" transform="scale(0.015625)"/>
       <path id="MicrosoftYaHei-53" d="M 400 909 
Q 622 716 994 591 
Q 1366 466 1700 466 
Q 2719 466 2719 1191 
Q 2719 1394 2609 1556 
Q 2500 1719 2309 1844 
Q 2119 1969 1594 2228 
Q 866 2591 634 2902 
Q 403 3213 403 3613 
Q 403 4216 887 4569 
Q 1372 4922 2109 4922 
Q 2831 4922 3169 4747 
L 3169 4066 
Q 2731 4369 2063 4369 
Q 1619 4369 1339 4183 
Q 1059 3997 1059 3666 
Q 1059 3372 1253 3187 
Q 1447 3003 2094 2684 
Q 2806 2344 3090 2003 
Q 3375 1663 3375 1238 
Q 3375 600 2912 259 
Q 2450 -81 1628 -81 
Q 1341 -81 958 -1 
Q 575 78 400 197 
L 400 909 
z
" transform="scale(0.015625)"/>
       <path id="MicrosoftYaHei-45" d="M 3228 0 
L 625 0 
L 625 4841 
L 3119 4841 
L 3119 4284 
L 1250 4284 
L 1250 2734 
L 2981 2734 
L 2981 2181 
L 1250 2181 
L 1250 553 
L 3228 553 
L 3228 0 
z
" transform="scale(0.015625)"/>
      </defs>
      <use xlink:href="#MicrosoftYaHei-52"/>
      <use xlink:href="#MicrosoftYaHei-4d" transform="translate(65.283203 0)"/>
      <use xlink:href="#MicrosoftYaHei-53" transform="translate(162.988281 0)"/>
      <use xlink:href="#MicrosoftYaHei-45" transform="translate(220.703125 0)"/>
     </g>
    </g>
   </g>
   <g id="patch_9">
    <path d="M 48.679688 352.649926 
L 48.679688 22.7925 
" style="fill: none; stroke: #000000; stroke-width: 0.8; stroke-linejoin: miter; stroke-linecap: square"/>
   </g>
   <g id="patch_10">
    <path d="M 48.679688 352.649926 
L 704.579688 352.649926 
" style="fill: none; stroke: #000000; stroke-width: 0.8; stroke-linejoin: miter; stroke-linecap: square"/>
   </g>
   <g id="text_14">
    <!-- PID vs Tuned LADRC Across PyBullet Scenarios -->
    <g transform="translate(243.309688 16.7925) scale(0.12 -0.12)">
     <defs>
      <path id="MicrosoftYaHei-50" d="M 1250 1809 
L 1250 0 
L 625 0 
L 625 4841 
L 2000 4841 
Q 2784 4841 3217 4462 
Q 3650 4084 3650 3381 
Q 3650 2669 3144 2226 
Q 2638 1784 1878 1809 
L 1250 1809 
z
M 1250 4291 
L 1250 2359 
L 1828 2359 
Q 2400 2359 2697 2617 
Q 2994 2875 2994 3356 
Q 2994 4291 1888 4291 
L 1250 4291 
z
" transform="scale(0.015625)"/>
      <path id="MicrosoftYaHei-49" d="M 1250 4841 
L 1250 0 
L 625 0 
L 625 4841 
L 1250 4841 
z
" transform="scale(0.015625)"/>
      <path id="MicrosoftYaHei-44" d="M 625 0 
L 625 4841 
L 2006 4841 
Q 3106 4841 3836 4200 
Q 4566 3559 4566 2481 
Q 4566 1356 3836 678 
Q 3106 0 1956 0 
L 625 0 
z
M 1250 4284 
L 1250 553 
L 1953 553 
Q 2875 553 3392 1056 
Q 3909 1559 3909 2466 
Q 3909 3372 3378 3828 
Q 2847 4284 1981 4284 
L 1250 4284 
z
" transform="scale(0.015625)"/>
      <path id="MicrosoftYaHei-20" transform="scale(0.015625)"/>
      <path id="MicrosoftYaHei-54" d="M 3550 4284 
L 2153 4284 
L 2153 0 
L 1525 0 
L 1525 4284 
L 134 4284 
L 134 4841 
L 3550 4841 
L 3550 4284 
z
" transform="scale(0.015625)"/>
      <path id="MicrosoftYaHei-4c" d="M 3178 0 
L 625 0 
L 625 4841 
L 1250 4841 
L 1250 553 
L 3178 553 
L 3178 0 
z
" transform="scale(0.015625)"/>
      <path id="MicrosoftYaHei-41" d="M 4428 0 
L 3738 0 
L 3244 1325 
L 1228 1325 
L 763 0 
L 72 0 
L 1916 4841 
L 2584 4841 
L 4428 0 
z
M 3050 1872 
L 2319 3884 
Q 2284 3981 2244 4222 
L 2228 4222 
Q 2194 4003 2150 3884 
L 1425 1872 
L 3050 1872 
z
" transform="scale(0.015625)"/>
      <path id="MicrosoftYaHei-43" d="M 3938 200 
Q 3403 -81 2597 -81 
Q 1556 -81 934 580 
Q 313 1241 313 2328 
Q 313 3497 1013 4209 
Q 1713 4922 2791 4922 
Q 3484 4922 3938 4725 
L 3938 4072 
Q 3419 4359 2797 4359 
Q 1988 4359 1478 3820 
Q 969 3281 969 2366 
Q 969 1497 1444 986 
Q 1919 475 2688 475 
Q 3406 475 3938 800 
L 3938 200 
z
" transform="scale(0.015625)"/>
      <path id="MicrosoftYaHei-6f" d="M 316 1691 
Q 316 2547 794 3042 
Q 1272 3538 2091 3538 
Q 2869 3538 3311 3061 
Q 3753 2584 3753 1744 
Q 3753 925 3281 422 
Q 2809 -81 2016 -81 
Q 1241 -81 778 406 
Q 316 894 316 1691 
z
M 941 1709 
Q 941 1113 1242 769 
Q 1544 425 2053 425 
Q 2578 425 2853 761 
Q 3128 1097 3128 1725 
Q 3128 2356 2853 2693 
Q 2578 3031 2053 3031 
Q 1538 3031 1239 2678 
Q 941 2325 941 1709 
z
" transform="scale(0.015625)"/>
      <path id="MicrosoftYaHei-79" d="M 3359 3456 
L 1791 -522 
Q 1353 -1628 556 -1628 
Q 328 -1628 166 -1578 
L 166 -1041 
Q 344 -1109 509 -1109 
Q 925 -1109 1131 -622 
L 1397 6 
L 41 3456 
L 719 3456 
L 1622 859 
L 1697 575 
L 1713 575 
Q 1731 672 1788 853 
L 2731 3456 
L 3359 3456 
z
" transform="scale(0.015625)"/>
      <path id="MicrosoftYaHei-42" d="M 625 0 
L 625 4841 
L 2047 4841 
Q 2684 4841 3065 4536 
Q 3447 4231 3447 3728 
Q 3447 3328 3220 3022 
Q 2994 2716 2597 2588 
L 2597 2575 
Q 3091 2519 3386 2201 
Q 3681 1884 3681 1397 
Q 3681 772 3232 386 
Q 2784 0 2084 0 
L 625 0 
z
M 1250 4294 
L 1250 2778 
L 1819 2778 
Q 2272 2778 2530 2998 
Q 2788 3219 2788 3609 
Q 2788 4294 1875 4294 
L 1250 4294 
z
M 1250 2234 
L 1250 547 
L 2000 547 
Q 2491 547 2758 773 
Q 3025 1000 3025 1403 
Q 3025 2234 1897 2234 
L 1250 2234 
z
" transform="scale(0.015625)"/>
     </defs>
     <use xlink:href="#MicrosoftYaHei-50"/>
     <use xlink:href="#MicrosoftYaHei-49" transform="translate(61.181641 0)"/>
     <use xlink:href="#MicrosoftYaHei-44" transform="translate(90.576172 0)"/>
     <use xlink:href="#MicrosoftYaHei-20" transform="translate(166.748047 0)"/>
     <use xlink:href="#MicrosoftYaHei-76" transform="translate(196.337891 0)"/>
     <use xlink:href="#MicrosoftYaHei-73" transform="translate(248.828125 0)"/>
     <use xlink:href="#MicrosoftYaHei-20" transform="translate(295.117188 0)"/>
     <use xlink:href="#MicrosoftYaHei-54" transform="translate(324.707031 0)"/>
     <use xlink:href="#MicrosoftYaHei-75" transform="translate(372.65625 0)"/>
     <use xlink:href="#MicrosoftYaHei-6e" transform="translate(434.277344 0)"/>
     <use xlink:href="#MicrosoftYaHei-65" transform="translate(495.898438 0)"/>
     <use xlink:href="#MicrosoftYaHei-64" transform="translate(552.636719 0)"/>
     <use xlink:href="#MicrosoftYaHei-20" transform="translate(616.601562 0)"/>
     <use xlink:href="#MicrosoftYaHei-4c" transform="translate(646.191406 0)"/>
     <use xlink:href="#MicrosoftYaHei-41" transform="translate(700.634766 0)"/>
     <use xlink:href="#MicrosoftYaHei-44" transform="translate(770.996094 0)"/>
     <use xlink:href="#MicrosoftYaHei-52" transform="translate(847.167969 0)"/>
     <use xlink:href="#MicrosoftYaHei-43" transform="translate(910.951172 0)"/>
     <use xlink:href="#MicrosoftYaHei-20" transform="translate(977.845703 0)"/>
     <use xlink:href="#MicrosoftYaHei-41" transform="translate(1007.435547 0)"/>
     <use xlink:href="#MicrosoftYaHei-63" transform="translate(1077.796875 0)"/>
     <use xlink:href="#MicrosoftYaHei-72" transform="translate(1127.943359 0)"/>
     <use xlink:href="#MicrosoftYaHei-6f" transform="translate(1164.751953 0)"/>
     <use xlink:href="#MicrosoftYaHei-73" transform="translate(1228.326172 0)"/>
     <use xlink:href="#MicrosoftYaHei-73" transform="translate(1274.615234 0)"/>
     <use xlink:href="#MicrosoftYaHei-20" transform="translate(1320.904297 0)"/>
     <use xlink:href="#MicrosoftYaHei-50" transform="translate(1350.494141 0)"/>
     <use xlink:href="#MicrosoftYaHei-79" transform="translate(1411.675781 0)"/>
     <use xlink:href="#MicrosoftYaHei-42" transform="translate(1464.605469 0)"/>
     <use xlink:href="#MicrosoftYaHei-75" transform="translate(1527.349609 0)"/>
     <use xlink:href="#MicrosoftYaHei-6c" transform="translate(1588.970703 0)"/>
     <use xlink:href="#MicrosoftYaHei-6c" transform="translate(1615.582031 0)"/>
     <use xlink:href="#MicrosoftYaHei-65" transform="translate(1642.193359 0)"/>
     <use xlink:href="#MicrosoftYaHei-74" transform="translate(1698.931641 0)"/>
     <use xlink:href="#MicrosoftYaHei-20" transform="translate(1736.1875 0)"/>
     <use xlink:href="#MicrosoftYaHei-53" transform="translate(1765.777344 0)"/>
     <use xlink:href="#MicrosoftYaHei-63" transform="translate(1823.492188 0)"/>
     <use xlink:href="#MicrosoftYaHei-65" transform="translate(1873.638672 0)"/>
     <use xlink:href="#MicrosoftYaHei-6e" transform="translate(1930.376953 0)"/>
     <use xlink:href="#MicrosoftYaHei-61" transform="translate(1991.998047 0)"/>
     <use xlink:href="#MicrosoftYaHei-72" transform="translate(2047.271484 0)"/>
     <use xlink:href="#MicrosoftYaHei-69" transform="translate(2085.455078 0)"/>
     <use xlink:href="#MicrosoftYaHei-6f" transform="translate(2112.066406 0)"/>
     <use xlink:href="#MicrosoftYaHei-73" transform="translate(2175.640625 0)"/>
    </g>
   </g>
   <g id="legend_1">
    <g id="patch_11">
     <path d="M 602.265625 39.78625 
L 622.265625 39.78625 
L 622.265625 32.78625 
L 602.265625 32.78625 
z
" style="fill: #d62728"/>
    </g>
    <g id="text_15">
     <!-- PID -->
     <g transform="translate(630.265625 39.78625) scale(0.1 -0.1)">
      <use xlink:href="#MicrosoftYaHei-50"/>
      <use xlink:href="#MicrosoftYaHei-49" transform="translate(61.181641 0)"/>
      <use xlink:href="#MicrosoftYaHei-44" transform="translate(90.576172 0)"/>
     </g>
    </g>
    <g id="patch_12">
     <path d="M 602.265625 55.265937 
L 622.265625 55.265937 
L 622.265625 48.265937 
L 602.265625 48.265937 
z
" style="fill: #2ca02c"/>
    </g>
    <g id="text_16">
     <!-- Tuned LADRC -->
     <g transform="translate(630.265625 55.265937) scale(0.1 -0.1)">
      <use xlink:href="#MicrosoftYaHei-54"/>
      <use xlink:href="#MicrosoftYaHei-75" transform="translate(47.949219 0)"/>
      <use xlink:href="#MicrosoftYaHei-6e" transform="translate(109.570312 0)"/>
      <use xlink:href="#MicrosoftYaHei-65" transform="translate(171.191406 0)"/>
      <use xlink:href="#MicrosoftYaHei-64" transform="translate(227.929688 0)"/>
      <use xlink:href="#MicrosoftYaHei-20" transform="translate(291.894531 0)"/>
      <use xlink:href="#MicrosoftYaHei-4c" transform="translate(321.484375 0)"/>
      <use xlink:href="#MicrosoftYaHei-41" transform="translate(375.927734 0)"/>
      <use xlink:href="#MicrosoftYaHei-44" transform="translate(446.289062 0)"/>
      <use xlink:href="#MicrosoftYaHei-52" transform="translate(522.460938 0)"/>
      <use xlink:href="#MicrosoftYaHei-43" transform="translate(586.244141 0)"/>
     </g>
    </g>
   </g>
  </g>
 </g>
 <defs>
  <clipPath id="pcbe79f8372">
   <rect x="48.679688" y="22.7925" width="655.9" height="329.857426"/>
  </clipPath>
 </defs>
</svg>
