<svg xmlns="http://www.w3.org/2000/svg" width="720" height="420">
<rect width="100%" height="100%" fill="white" />
<line x1="60" y1="360" x2="660" y2="360" stroke="#333" />
<line x1="60" y1="60" x2="60" y2="360" stroke="#333" />
<polyline fill="none" stroke="#4f81bd" stroke-width="2" points="60.0,217.5 91.6,86.0 123.2,118.2 154.7,139.4 186.3,110.0 217.9,60.0 249.5,131.2 281.1,97.7 312.6,200.4 344.2,266.6 375.8,98.0 407.4,150.6 438.9,259.0 470.5,294.5 502.1,305.8 533.7,162.7 565.3,185.5 596.8,183.7 628.4,360.0 660.0,239.8" />
<polyline fill="none" stroke="#c0504d" stroke-width="2" points="60.0,144.6 91.6,87.1 123.2,96.7 154.7,211.7 186.3,151.3 217.9,201.3 249.5,153.3 281.1,96.4 312.6,97.2 344.2,60.9 375.8,93.0 407.4,95.8 438.9,176.1 470.5,112.6 502.1,74.3 533.7,80.7 565.3,110.8 596.8,120.3 628.4,78.3 660.0,99.9" />
<text x="360.0" y="28" text-anchor="middle" font-size="18">No-Disturbance PyBullet RL-LADRC Reward Curves</text>
<text x="540" y="50" font-size="12" fill="#4f81bd">v=1</text>
<text x="540" y="68" font-size="12" fill="#c0504d">v=5</text>
</svg>