<svg xmlns="http://www.w3.org/2000/svg" width="720" height="420">
<rect width="100%" height="100%" fill="white" />
<line x1="60" y1="360" x2="660" y2="360" stroke="#333" />
<line x1="60" y1="60" x2="60" y2="360" stroke="#333" />
<polyline fill="none" stroke="#4f81bd" stroke-width="2" points="60.0,234.0 66.1,234.0 72.1,234.0 78.2,234.0 84.2,234.0 90.3,234.0 96.4,234.0 102.4,234.0 108.5,234.0 114.5,234.0 120.6,234.0 126.7,234.0 132.7,234.0 138.8,234.0 144.8,234.0 150.9,234.0 157.0,234.0 163.0,234.0 169.1,234.0 175.2,234.0 181.2,234.0 187.3,234.0 193.3,234.0 199.4,234.0 205.5,234.0 211.5,234.0 217.6,234.0 223.6,234.0 229.7,234.0 235.8,234.0 241.8,234.0 247.9,234.0 253.9,234.0 260.0,229.3 266.1,224.5 272.1,219.7 278.2,214.9 284.2,210.2 290.3,205.4 296.4,200.7 302.4,195.9 308.5,191.2 314.5,186.5 320.6,181.8 326.7,177.1 332.7,172.4 338.8,167.7 344.8,163.1 350.9,158.4 357.0,153.8 363.0,149.2 369.1,144.6 375.2,144.9 381.2,145.1 387.3,145.4 393.3,145.7 399.4,146.0 405.5,146.3 411.5,146.6 417.6,146.9 423.6,147.3 429.7,147.7 435.8,148.1 441.8,148.5 447.9,149.0 453.9,149.4 460.0,149.9 466.1,150.4 472.1,151.0 478.2,151.5 484.2,152.0 490.3,152.6 496.4,153.1 502.4,161.0 508.5,168.9 514.5,176.8 520.6,184.7 526.7,192.5 532.7,200.4 538.8,208.2 544.8,216.0 550.9,223.8 557.0,231.6 563.0,239.4 569.1,247.1 575.2,254.8 581.2,262.5 587.3,270.2 593.3,277.8 599.4,285.5 605.5,293.1 611.5,300.6 617.6,308.1 623.6,315.7 629.7,323.1 635.8,330.6 641.8,338.0 647.9,345.3 653.9,352.7 660.0,360.0" />
<polyline fill="none" stroke="#c0504d" stroke-width="2" points="60.0,234.0 66.1,234.0 72.1,234.0 78.2,234.0 84.2,234.0 90.3,234.0 96.4,234.0 102.4,234.0 108.5,234.0 114.5,234.0 120.6,234.0 126.7,234.0 132.7,234.0 138.8,234.0 144.8,234.0 150.9,234.0 157.0,234.0 163.0,234.0 169.1,234.0 175.2,234.0 181.2,234.0 187.3,234.0 193.3,234.0 199.4,234.0 205.5,234.0 211.5,234.0 217.6,234.0 223.6,234.0 229.7,234.0 235.8,234.0 241.8,234.0 247.9,234.0 253.9,234.0 260.0,229.5 266.1,225.3 272.1,221.5 278.2,217.9 284.2,214.6 290.3,211.6 296.4,208.9 302.4,206.5 308.5,204.5 314.5,202.7 320.6,201.2 326.7,199.9 332.7,198.9 338.8,198.2 344.8,197.7 350.9,197.5 357.0,197.4 363.0,197.6 369.1,198.0 375.2,203.0 381.2,207.9 387.3,212.7 393.3,217.3 399.4,221.7 405.5,226.0 411.5,230.0 417.6,233.8 423.6,237.4 429.7,240.8 435.8,244.0 441.8,246.9 447.9,249.6 453.9,252.1 460.0,254.4 466.1,256.4 472.1,258.2 478.2,259.7 484.2,261.1 490.3,262.2 496.4,263.1 502.4,270.7 508.5,277.6 514.5,283.9 520.6,289.5 526.7,294.5 532.7,298.9 538.8,302.6 544.8,305.7 550.9,308.3 557.0,310.3 563.0,311.7 569.1,312.7 575.2,313.1 581.2,313.1 587.3,312.6 593.3,311.7 599.4,310.5 605.5,308.9 611.5,307.0 617.6,304.8 623.6,302.3 629.7,299.6 635.8,296.6 641.8,293.5 647.9,290.3 653.9,286.9 660.0,283.4" />
<polyline fill="none" stroke="#9bbb59" stroke-width="2" points="60.0,234.0 66.1,234.0 72.1,234.0 78.2,234.0 84.2,234.0 90.3,234.0 96.4,234.0 102.4,234.0 108.5,234.0 114.5,234.0 120.6,234.0 126.7,234.0 132.7,234.0 138.8,234.0 144.8,234.0 150.9,234.0 157.0,234.0 163.0,234.0 169.1,234.0 175.2,234.0 181.2,234.0 187.3,226.2 193.3,218.4 199.4,210.8 205.5,203.3 211.5,196.0 217.6,188.7 223.6,181.6 229.7,174.7 235.8,167.8 241.8,161.2 247.9,154.6 253.9,148.3 260.0,142.0 266.1,136.0 272.1,130.0 278.2,124.3 284.2,118.6 290.3,113.2 296.4,107.9 302.4,102.7 308.5,97.7 314.5,92.9 320.6,88.2 326.7,83.7 332.7,79.3 338.8,75.1 344.8,71.1 350.9,67.2 357.0,63.5 363.0,60.0 369.1,64.5 375.2,69.1 381.2,73.7 387.3,78.3 393.3,83.0 399.4,87.7 405.5,92.5 411.5,97.3 417.6,102.2 423.6,107.1 429.7,112.0 435.8,116.9 441.8,121.8 447.9,126.8 453.9,131.7 460.0,136.7 466.1,141.7 472.1,146.6 478.2,151.6 484.2,156.5 490.3,161.4 496.4,166.3 502.4,171.2 508.5,176.0 514.5,180.8 520.6,185.6 526.7,190.3 532.7,198.4 538.8,206.5 544.8,214.4 550.9,222.2 557.0,229.9 563.0,237.5 569.1,245.0 575.2,252.4 581.2,259.7 587.3,266.8 593.3,273.9 599.4,280.8 605.5,287.6 611.5,294.2 617.6,300.8 623.6,307.2 629.7,313.4 635.8,319.5 641.8,325.5 647.9,331.4 653.9,337.1 660.0,342.7" />
<polyline fill="none" stroke="#8064a2" stroke-width="2" points="60.0,234.0 66.1,234.0 72.1,234.0 78.2,234.0 84.2,234.0 90.3,234.0 96.4,234.0 102.4,234.0 108.5,234.0 114.5,234.0 120.6,234.0 126.7,234.0 132.7,234.0 138.8,234.0 144.8,234.0 150.9,234.0 157.0,234.0 163.0,234.0 169.1,234.0 175.2,234.0 181.2,234.0 187.3,234.0 193.3,234.0 199.4,234.0 205.5,234.0 211.5,234.0 217.6,234.0 223.6,234.0 229.7,228.1 235.8,222.6 241.8,217.4 247.9,212.7 253.9,208.4 260.0,204.5 266.1,201.1 272.1,198.1 278.2,195.7 284.2,193.7 290.3,192.2 296.4,191.2 302.4,190.6 308.5,190.5 314.5,190.8 320.6,191.5 326.7,192.6 332.7,194.0 338.8,195.8 344.8,197.8 350.9,200.2 357.0,202.8 363.0,205.5 369.1,208.5 375.2,217.5 381.2,226.3 387.3,234.7 393.3,242.8 399.4,250.5 405.5,257.7 411.5,264.4 417.6,270.5 423.6,276.1 429.7,281.1 435.8,285.5 441.8,289.2 447.9,292.3 453.9,294.8 460.0,296.7 466.1,297.9 472.1,298.5 478.2,298.5 484.2,298.0 490.3,296.9 496.4,299.9 502.4,302.1 508.5,303.6 514.5,304.4 520.6,304.5 526.7,304.0 532.7,302.9 538.8,301.1 544.8,298.9 550.9,296.1 557.0,292.9 563.0,289.2 569.1,285.3 575.2,280.9 581.2,276.4 587.3,271.6 593.3,266.7 599.4,261.6 605.5,256.5 611.5,251.4 617.6,246.3 623.6,241.3 629.7,236.4 635.8,231.6 641.8,227.1 647.9,222.7 653.9,218.7 660.0,214.9" />
<polyline fill="none" stroke="#f0ad4e" stroke-width="2" points="60.0,234.0 66.1,234.0 72.1,234.0 78.2,234.0 84.2,234.0 90.3,234.0 96.4,234.0 102.4,234.0 108.5,234.0 114.5,234.0 120.6,234.0 126.7,234.0 132.7,234.0 138.8,234.0 144.8,234.0 150.9,234.0 157.0,234.0 163.0,234.0 169.1,234.0 175.2,234.0 181.2,234.0 187.3,234.0 193.3,234.0 199.4,234.0 205.5,234.0 211.5,234.0 217.6,234.0 223.6,234.0 229.7,234.0 235.8,234.0 241.8,227.0 247.9,220.0 253.9,213.1 260.0,206.1 266.1,199.2 272.1,192.2 278.2,185.3 284.2,178.4 290.3,171.5 296.4,164.7 302.4,157.8 308.5,151.0 314.5,144.1 320.6,137.3 326.7,130.6 332.7,123.8 338.8,117.1 344.8,110.4 350.9,110.7 357.0,111.1 363.0,111.4 369.1,111.8 375.2,112.2 381.2,112.6 387.3,113.0 393.3,113.5 399.4,113.9 405.5,114.4 411.5,114.9 417.6,115.5 423.6,116.0 429.7,116.6 435.8,117.2 441.8,117.8 447.9,118.4 453.9,119.1 460.0,119.8 466.1,120.5 472.1,121.2 478.2,122.0 484.2,122.7 490.3,127.6 496.4,132.4 502.4,137.2 508.5,142.1 514.5,146.9 520.6,151.8 526.7,156.6 532.7,161.4 538.8,166.3 544.8,171.1 550.9,175.9 557.0,180.8 563.0,185.6 569.1,190.4 575.2,195.2 581.2,200.0 587.3,204.7 593.3,209.5 599.4,214.2 605.5,219.0 611.5,223.7 617.6,228.4 623.6,233.1 629.7,237.8 635.8,242.4 641.8,247.1 647.9,251.7 653.9,256.3 660.0,260.9" />
<polyline fill="none" stroke="#4f81bd" stroke-width="2" points="60.0,234.0 66.1,234.0 72.1,234.0 78.2,234.0 84.2,234.0 90.3,234.0 96.4,234.0 102.4,234.0 108.5,234.0 114.5,234.0 120.6,234.0 126.7,234.0 132.7,234.0 138.8,234.0 144.8,234.0 150.9,234.0 157.0,234.0 163.0,234.0 169.1,234.0 175.2,234.0 181.2,234.0 187.3,234.0 193.3,234.0 199.4,234.0 205.5,234.0 211.5,234.0 217.6,234.0 223.6,234.0 229.7,234.0 235.8,234.0 241.8,227.5 247.9,221.3 253.9,215.6 260.0,210.4 266.1,205.6 272.1,201.3 278.2,197.4 284.2,193.9 290.3,190.9 296.4,188.3 302.4,186.1 308.5,184.3 314.5,182.9 320.6,181.8 326.7,181.1 332.7,180.8 338.8,180.7 344.8,181.0 350.9,188.1 357.0,195.0 363.0,201.8 369.1,208.3 375.2,214.5 381.2,220.5 387.3,226.2 393.3,231.6 399.4,236.8 405.5,241.6 411.5,246.1 417.6,250.2 423.6,254.1 429.7,257.6 435.8,260.8 441.8,263.7 447.9,266.3 453.9,268.6 460.0,270.6 466.1,272.2 472.1,273.6 478.2,274.7 484.2,275.5 490.3,279.9 496.4,283.8 502.4,287.2 508.5,290.1 514.5,292.5 520.6,294.5 526.7,296.0 532.7,297.1 538.8,297.8 544.8,298.1 550.9,298.1 557.0,297.7 563.0,296.9 569.1,295.9 575.2,294.6 581.2,293.1 587.3,291.3 593.3,289.3 599.4,287.1 605.5,284.8 611.5,282.3 617.6,279.7 623.6,277.0 629.7,274.2 635.8,271.3 641.8,268.5 647.9,265.5 653.9,262.6 660.0,259.7" />
<polyline fill="none" stroke="#c0504d" stroke-width="2" points="60.0,234.0 66.1,234.0 72.1,234.0 78.2,234.0 84.2,234.0 90.3,234.0 96.4,234.0 102.4,234.0 108.5,234.0 114.5,234.0 120.6,234.0 126.7,234.0 132.7,234.0 138.8,234.0 144.8,234.0 150.9,234.0 157.0,234.0 163.0,234.0 169.1,234.0 175.2,234.0 181.2,234.0 187.3,234.0 193.3,234.0 199.4,234.0 205.5,234.0 211.5,234.0 217.6,234.0 223.6,234.0 229.7,234.0 235.8,234.0 241.8,227.7 247.9,221.7 253.9,216.1 260.0,210.7 266.1,205.6 272.1,200.8 278.2,196.3 284.2,192.0 290.3,188.0 296.4,184.3 302.4,180.7 308.5,177.5 314.5,174.4 320.6,171.6 326.7,169.0 332.7,166.6 338.8,164.3 344.8,162.3 350.9,160.5 357.0,158.8 363.0,157.3 369.1,156.0 375.2,161.1 381.2,166.1 387.3,170.9 393.3,175.6 399.4,180.1 405.5,184.5 411.5,188.7 417.6,192.7 423.6,196.7 429.7,200.4 435.8,204.0 441.8,207.5 447.9,210.9 453.9,214.1 460.0,217.2 466.1,220.1 472.1,223.0 478.2,225.7 484.2,228.2 490.3,230.7 496.4,233.0 502.4,235.2 508.5,237.3 514.5,239.3 520.6,241.2 526.7,249.4 532.7,257.2 538.8,264.6 544.8,271.6 550.9,278.2 557.0,284.4 563.0,290.2 569.1,295.6 575.2,300.7 581.2,305.5 587.3,309.9 593.3,314.0 599.4,317.8 605.5,321.3 611.5,324.5 617.6,327.4 623.6,330.1 629.7,332.5 635.8,334.6 641.8,336.6 647.9,338.3 653.9,339.8 660.0,341.0" />
<polyline fill="none" stroke="#9bbb59" stroke-width="2" points="60.0,234.0 66.1,234.0 72.1,234.0 78.2,234.0 84.2,234.0 90.3,234.0 96.4,234.0 102.4,234.0 108.5,234.0 114.5,234.0 120.6,234.0 126.7,234.0 132.7,234.0 138.8,234.0 144.8,234.0 150.9,234.0 157.0,234.0 163.0,234.0 169.1,234.0 175.2,228.1 181.2,222.6 187.3,217.4 193.3,212.6 199.4,208.3 205.5,204.5 211.5,201.1 217.6,198.2 223.6,195.8 229.7,193.8 235.8,192.4 241.8,191.4 247.9,191.0 253.9,190.9 260.0,191.3 266.1,192.1 272.1,193.3 278.2,194.8 284.2,196.7 290.3,198.8 296.4,201.2 302.4,203.8 308.5,206.7 314.5,209.6 320.6,212.8 326.7,216.0 332.7,219.2 338.8,228.4 344.8,237.3 350.9,245.7 357.0,253.7 363.0,261.1 369.1,268.0 375.2,274.3 381.2,279.9 387.3,284.9 393.3,289.2 399.4,292.8 405.5,295.8 411.5,298.1 417.6,299.7 423.6,300.7 429.7,301.1 435.8,300.8 441.8,300.0 447.9,298.6 453.9,296.7 460.0,294.4 466.1,291.6 472.1,288.5 478.2,285.0 484.2,281.2 490.3,281.2 496.4,280.8 502.4,279.9 508.5,278.7 514.5,277.0 520.6,275.1 526.7,272.8 532.7,270.3 538.8,267.5 544.8,264.5 550.9,261.3 557.0,258.0 563.0,254.6 569.1,251.1 575.2,247.6 581.2,244.1 587.3,240.6 593.3,237.1 599.4,233.8 605.5,230.6 611.5,227.5 617.6,224.5 623.6,221.8 629.7,219.2 635.8,216.9 641.8,214.7 647.9,212.8 653.9,211.2 660.0,209.8" />
<text x="360.0" y="28" text-anchor="middle" font-size="18">Time response: error</text>
<text x="540" y="50" font-size="12" fill="#4f81bd">pid_x</text>
<text x="540" y="68" font-size="12" fill="#c0504d">ladrc_x</text>
<text x="540" y="86" font-size="12" fill="#9bbb59">ddpg_ladrc_x</text>
<text x="540" y="104" font-size="12" fill="#8064a2">mddpg_ladrc_x</text>
<text x="540" y="122" font-size="12" fill="#f0ad4e">pid_y</text>
<text x="540" y="140" font-size="12" fill="#4f81bd">ladrc_y</text>
<text x="540" y="158" font-size="12" fill="#c0504d">ddpg_ladrc_y</text>
<text x="540" y="176" font-size="12" fill="#9bbb59">mddpg_ladrc_y</text>
</svg>